:SAMPLES-PER-SECOND 30
:FULLY-SPECIFIED
:DEGREES
205
root  -20.4273 36.1827 -1.66827 93.0201 -82.0815 -78.5006
RightUpLeg  -38.8417 -13.5219 14.9287
RightLeg  51.8182 -10.5001 -14.345
RightFoot  -24.2028 0.0610693 1.99383
RightToes  -1.33073e-015 0 -3.6325e-017
Spine  47.9095 -6.0867 14.4868
Spine1  2.29394 -1.08837 4.28186
HEad  -47.4889 4.85649 -9.96948
LeftShoulder1  12.4485 -19.9202 -46.3245
LeftArm  -7.59633 -22.1997 -25.9255
LeftForeArm  41.2458 -11.1697 -6.62366
LeftHand  -0.244104 0.0205437 5.32207
RightShoulder  7.83016 13.9923 38.666
RightArm  -2.21511 14.2255 28.7513
RightForeArm  1.84895 21.7421 5.05436
RightHand  -2.80561 8.46387 -23.5145
LeftUpLeg  -18.0749 0.44403 7.53013
LeftLeg  72.3862 2.51727 9.83379
LeftFoot  4.569 1.20593 -8.80919
LeftToes  -7.82198e-011 2.46994e-011 -7.94165e-012
206
root  -21.3782 37.109 -1.7818 90.0578 -83.3974 -76.7772
RightUpLeg  -32.983 -15.4078 12.9577
RightLeg  45.954 -10.8469 -12.098
RightFoot  -22.9972 -0.00258837 1.50201
RightToes  -1.33073e-015 0 -3.6325e-017
Spine  47.3521 -5.31522 13.8101
Spine1  1.71384 -0.473752 3.55877
HEad  -45.2312 3.28693 -9.32622
LeftShoulder1  12.7409 -19.5861 -48.1468
LeftArm  -5.79036 -17.7808 -24.6866
LeftForeArm  41.0376 -10.9962 -6.98684
LeftHand  -0.244104 0.0205437 5.32207
RightShoulder  7.71642 13.585 39.0517
RightArm  -4.90059 16.1715 28.1242
RightForeArm  0.666368 28.2621 6.02208
RightHand  -2.61678 7.79741 -23.059
LeftUpLeg  -23.457 0.591158 6.39115
LeftLeg  73.2608 2.21374 9.35178
LeftFoot  1.20461 0.835249 -7.67646
LeftToes  -7.82198e-011 2.46994e-011 -7.94165e-012
207
root  -22.4047 37.9218 -1.87417 85.5091 -84.8398 -73.6015
RightUpLeg  -26.9268 -17.259 10.5367
RightLeg  40.2665 -10.7006 -9.8575
RightFoot  -21.8311 -0.00567642 1.556
RightToes  -1.33073e-015 0 -3.6325e-017
Spine  46.3217 -4.40288 12.7669
Spine1  1.78555 0.0781621 2.75929
HEad  -42.8227 1.88032 -8.72135
LeftShoulder1  12.8452 -19.1562 -49.4766
LeftArm  -5.0024 -13.4029 -23.4976
LeftForeArm  41.1935 -10.5413 -7.18749
LeftHand  -0.244104 0.0205437 5.32207
RightShoulder  7.46741 13.1335 38.7933
RightArm  -7.46021 17.8253 27.9265
RightForeArm  0.655251 34.7997 7.77857
RightHand  -2.66752 7.93081 -23.2606
LeftUpLeg  -28.1857 0.785277 5.12483
LeftLeg  71.6007 2.13475 8.12902
LeftFoot  -1.96684 0.609003 -7.28268
LeftToes  -7.82198e-011 2.46994e-011 -7.94165e-012
208
root  -23.4805 38.6048 -1.94309 75.2236 -86.2094 -64.7379
RightUpLeg  -20.9037 -19.0031 7.81186
RightLeg  34.9908 -10.2396 -7.87475
RightFoot  -20.5788 0.0357214 2.169
RightToes  -1.33073e-015 0 -3.6325e-017
Spine  44.7619 -3.48304 11.3632
Spine1  2.63502 0.36275 2.22912
HEad  -40.3454 0.882792 -8.08809
LeftShoulder1  12.7027 -18.6261 -50.1026
LeftArm  -5.06535 -9.20745 -22.5633
LeftForeArm  41.9303 -9.97803 -7.17043
LeftHand  -0.244104 0.0205437 5.32207
RightShoulder  7.09883 12.6603 37.8689
RightArm  -8.74231 19.638 28.3231
RightForeArm  1.65756 40.7705 9.55496
RightHand  -2.64691 7.75191 -23.3885
LeftUpLeg  -32.1317 1.23418 3.79114
LeftLeg  67.3353 2.48897 7.29092
LeftFoot  -3.78524 0.475086 -6.84966
LeftToes  -7.82198e-011 2.46994e-011 -7.94165e-012
209
root  -24.593 39.1221 -1.97942 59.9831 -87.0477 -51.1982
RightUpLeg  -14.8424 -20.5433 5.24717
RightLeg  30.4392 -9.84502 -6.43333
RightFoot  -19.1413 0.0436301 2.53109
RightToes  -1.33073e-015 0 -3.6325e-017
Spine  43.3919 -2.79252 10.1846
Spine1  3.42819 0.552987 1.68503
HEad  -37.5389 0.164178 -7.16682
LeftShoulder1  12.4301 -18.0831 -50.2634
LeftArm  -4.61528 -4.96545 -21.6136
LeftForeArm  42.6141 -9.58408 -7.18875
LeftHand  -0.244104 0.0205437 5.32207
RightShoulder  6.7447 12.1789 36.993
RightArm  -8.95574 21.2525 28.7382
RightForeArm  3.43752 45.844 11.3108
RightHand  -2.53272 7.13805 -23.4682
LeftUpLeg  -34.4392 2.3335 2.66117
LeftLeg  60.0306 3.16388 6.50339
LeftFoot  -4.70138 0.406702 -6.52614
LeftToes  -7.82198e-011 2.46994e-011 -7.94165e-012
210
root  -25.7603 39.4887 -1.97567 48.5807 -87.5995 -41.4585
RightUpLeg  -8.93117 -21.7958 2.89326
RightLeg  26.3626 -9.26368 -5.21168
RightFoot  -17.7782 0.0318395 2.71499
RightToes  -1.33073e-015 0 -3.6325e-017
Spine  42.1306 -2.14708 9.25927
Spine1  3.61602 0.905803 0.868911
HEad  -34.3088 -0.364191 -6.09999
LeftShoulder1  12.169 -17.5763 -50.3936
LeftArm  -2.73248 -0.445742 -20.3102
LeftForeArm  43.1479 -9.74794 -7.39022
LeftHand  -0.244104 0.0205437 5.32207
RightShoulder  6.44052 11.6704 36.4468
RightArm  -8.18513 22.1913 29.0498
RightForeArm  5.09404 49.868 12.9684
RightHand  -2.60348 7.16116 -24.0472
LeftUpLeg  -34.9641 4.32603 1.54666
LeftLeg  49.226 3.69771 5.04126
LeftFoot  -5.12311 0.381827 -6.46149
LeftToes  -7.82198e-011 2.46994e-011 -7.94165e-012
211
root  -27.0161 39.7526 -1.93263 26.3358 -88.5323 -19.8128
RightUpLeg  -4.07578 -22.4672 0.346341
RightLeg  22.3765 -8.22162 -3.83314
RightFoot  -16.7838 0.0611239 3.68652
RightToes  -1.33073e-015 0 -3.6325e-017
Spine  39.7474 -1.11391 7.72331
Spine1  3.82473 1.36529 0.127103
HEad  -31.018 -0.630099 -5.1595
LeftShoulder1  11.9871 -17.1272 -50.7195
LeftArm  0.0250411 4.39064 -18.7319
LeftForeArm  43.6524 -10.7354 -7.47094
LeftHand  -0.244104 0.0205437 5.32207
RightShoulder  6.16142 11.1901 35.9486
RightArm  -6.77035 22.4175 29.5682
RightForeArm  6.2598 52.9128 14.4573
RightHand  -2.85332 7.87419 -24.9109
LeftUpLeg  -34.8025 7.19793 -0.528997
LeftLeg  35.2875 3.59147 3.2332
LeftFoot  -4.96458 0.381515 -6.31076
LeftToes  -7.82198e-011 2.46994e-011 -7.94165e-012
212
root  -28.4102 39.852 -1.82708 -41.4773 -89.1589 48.5668
RightUpLeg  -0.746651 -21.4133 -2.3574
RightLeg  19.334 -8.14667 -2.5148
RightFoot  -16.331 0.114448 5.15266
RightToes  -1.33073e-015 0 -3.6325e-017
Spine  35.5707 0.173841 5.59374
Spine1  4.75458 1.7571 -0.218985
HEad  -27.9438 -0.628777 -4.19783
LeftShoulder1  11.8464 -16.7876 -50.9603
LeftArm  2.19274 9.49614 -17.3994
LeftForeArm  43.6789 -12.0995 -7.15159
LeftHand  -0.244104 0.0205437 5.32207
RightShoulder  5.97444 10.909 35.4812
RightArm  -5.08164 22.0798 30.2836
RightForeArm  7.02733 54.9576 15.5991
RightHand  -3.08468 8.57035 -25.5627
LeftUpLeg  -34.3104 9.87274 -3.06165
LeftLeg  20.4063 3.95172 1.36035
LeftFoot  -4.8799 0.398271 -6.53384
LeftToes  -7.82198e-011 2.46994e-011 -7.94165e-012
